<svg width="51" height="23" viewBox="0 0 51 23" fill="none" xmlns="http://www.w3.org/2000/svg">
<g filter="url(#filter0_d_3_4)">
<path d="M6.09431 1.00764V9.22806C6.09431 10.3838 6.37391 11.2412 6.93312 11.8004C7.50476 12.3596 8.29387 12.6393 9.30045 12.6393C10.2946 12.6393 11.0713 12.3596 11.6305 11.8004C12.2021 11.2412 12.488 10.3838 12.488 9.22806V1.00764H14.1842V9.20942C14.1842 10.2906 13.9668 11.2039 13.5318 11.9496C13.0969 12.6827 12.5066 13.2295 11.761 13.5899C11.0278 13.9503 10.2014 14.1305 9.28181 14.1305C8.36222 14.1305 7.52962 13.9503 6.784 13.5899C6.05081 13.2295 5.46675 12.6827 5.0318 11.9496C4.60929 11.2039 4.39803 10.2906 4.39803 9.20942V1.00764H6.09431ZM18.7102 5.68638C19.0582 5.07746 19.5677 4.58039 20.2387 4.19515C20.9098 3.80992 21.674 3.6173 22.5315 3.6173C23.4511 3.6173 24.2775 3.83477 25.0107 4.26971C25.7439 4.70466 26.3217 5.31979 26.7442 6.11511C27.1667 6.89801 27.378 7.81139 27.378 8.85525C27.378 9.88669 27.1667 10.8063 26.7442 11.614C26.3217 12.4218 25.7376 13.0493 24.992 13.4967C24.2588 13.9441 23.4387 14.1678 22.5315 14.1678C21.6492 14.1678 20.8725 13.9751 20.2014 13.5899C19.5428 13.2047 19.0457 12.7138 18.7102 12.1173V14H17.0139V0.206107H18.7102V5.68638ZM25.6444 8.85525C25.6444 8.08478 25.4891 7.41373 25.1784 6.84209C24.8678 6.27045 24.4452 5.83551 23.9109 5.53726C23.389 5.23901 22.8111 5.08989 22.1773 5.08989C21.556 5.08989 20.9781 5.24523 20.4438 5.5559C19.9218 5.85415 19.4993 6.2953 19.1762 6.87937C18.8655 7.45101 18.7102 8.11585 18.7102 8.87389C18.7102 9.64436 18.8655 10.3216 19.1762 10.9057C19.4993 11.4773 19.9218 11.9185 20.4438 12.2292C20.9781 12.5274 21.556 12.6765 22.1773 12.6765C22.8111 12.6765 23.389 12.5274 23.9109 12.2292C24.4452 11.9185 24.8678 11.4773 25.1784 10.9057C25.4891 10.3216 25.6444 9.63815 25.6444 8.85525ZM38.931 8.50108C38.931 8.82418 38.9123 9.16592 38.875 9.5263H30.7106C30.7727 10.5329 31.1144 11.322 31.7358 11.8936C32.3695 12.4528 33.1338 12.7325 34.0285 12.7325C34.7617 12.7325 35.3707 12.5647 35.8553 12.2292C36.3524 11.8812 36.7003 11.4214 36.8992 10.8498H38.7259C38.4525 11.8315 37.9057 12.633 37.0856 13.2544C36.2654 13.8633 35.2464 14.1678 34.0285 14.1678C33.0592 14.1678 32.1894 13.9503 31.4189 13.5153C30.6608 13.0804 30.0644 12.4653 29.6294 11.67C29.1945 10.8622 28.977 9.93018 28.977 8.87389C28.977 7.8176 29.1883 6.8918 29.6108 6.09647C30.0333 5.30115 30.6236 4.69223 31.3816 4.26971C32.1521 3.83477 33.0344 3.6173 34.0285 3.6173C34.9978 3.6173 35.8553 3.82856 36.6009 4.25107C37.3465 4.67359 37.9182 5.25765 38.3158 6.00327C38.7259 6.73646 38.931 7.56906 38.931 8.50108ZM37.1788 8.14692C37.1788 7.50071 37.0359 6.94772 36.75 6.48792C36.4642 6.0157 36.0728 5.66153 35.5757 5.42542C35.091 5.17688 34.5505 5.05261 33.954 5.05261C33.0965 5.05261 32.3633 5.326 31.7544 5.87279C31.1579 6.41957 30.8162 7.17761 30.7292 8.14692H37.1788ZM42.8663 5.44406C43.1645 4.85999 43.587 4.40641 44.1338 4.08331C44.693 3.76021 45.3703 3.59866 46.1656 3.59866V5.35086H45.7183C43.8169 5.35086 42.8663 6.38229 42.8663 8.44516V14H41.17V3.78506H42.8663V5.44406Z" fill="white"/>
<path d="M6.09431 1.00764H7.09431V0.00764322H6.09431V1.00764ZM6.93312 11.8004L6.22597 12.5076L6.23383 12.5153L6.93312 11.8004ZM11.6305 11.8004L10.9312 11.0856L10.9234 11.0933L11.6305 11.8004ZM12.488 1.00764V0.00764322H11.488V1.00764H12.488ZM14.1842 1.00764H15.1842V0.00764322H14.1842V1.00764ZM13.5318 11.9496L14.3919 12.4598L14.3956 12.4534L13.5318 11.9496ZM11.761 13.5899L11.3258 12.6895L11.3199 12.6925L11.761 13.5899ZM6.784 13.5899L6.34287 14.4874L6.34883 14.4903L6.784 13.5899ZM5.0318 11.9496L4.16178 12.4426L4.16668 12.4512L4.17175 12.4598L5.0318 11.9496ZM4.39803 1.00764V0.00764322H3.39803V1.00764H4.39803ZM5.09431 1.00764V9.22806H7.09431V1.00764H5.09431ZM5.09431 9.22806C5.09431 10.5268 5.40767 11.6892 6.22602 12.5075L7.64023 11.0933C7.34016 10.7933 7.09431 10.2407 7.09431 9.22806H5.09431ZM6.23383 12.5153C7.03761 13.3016 8.1035 13.6393 9.30045 13.6393V11.6393C8.48425 11.6393 7.97191 11.4177 7.63242 11.0856L6.23383 12.5153ZM9.30045 13.6393C10.4879 13.6393 11.5455 13.2996 12.3376 12.5075L10.9234 11.0933C10.5971 11.4196 10.1013 11.6393 9.30045 11.6393V13.6393ZM12.3298 12.5153C13.1655 11.6977 13.488 10.5323 13.488 9.22806H11.488C11.488 10.2352 11.2388 10.7847 10.9312 11.0856L12.3298 12.5153ZM13.488 9.22806V1.00764H11.488V9.22806H13.488ZM12.488 2.00764H14.1842V0.00764322H12.488V2.00764ZM13.1842 1.00764V9.20942H15.1842V1.00764H13.1842ZM13.1842 9.20942C13.1842 10.1577 12.9939 10.8871 12.668 11.4457L14.3956 12.4534C14.9397 11.5208 15.1842 10.4234 15.1842 9.20942H13.1842ZM12.6718 11.4394C12.3339 12.0088 11.8891 12.4173 11.3258 12.6896L12.1962 14.4903C13.1241 14.0418 13.8598 13.3566 14.3919 12.4598L12.6718 11.4394ZM11.3199 12.6925C10.7403 12.9773 10.0678 13.1305 9.28181 13.1305V15.1305C10.335 15.1305 11.3153 14.9233 12.2021 14.4874L11.3199 12.6925ZM9.28181 13.1305C8.49612 13.1305 7.81472 12.9774 7.21917 12.6896L6.34883 14.4903C7.24451 14.9232 8.22833 15.1305 9.28181 15.1305V13.1305ZM7.22512 12.6925C6.67404 12.4216 6.23226 12.0132 5.89186 11.4394L4.17175 12.4598C4.70123 13.3523 5.42759 14.0375 6.34288 14.4874L7.22512 12.6925ZM5.90183 11.4565C5.58403 10.8957 5.39803 10.1622 5.39803 9.20942H3.39803C3.39803 10.4189 3.63455 11.5122 4.16178 12.4426L5.90183 11.4565ZM5.39803 9.20942V1.00764H3.39803V9.20942H5.39803ZM4.39803 2.00764H6.09431V0.00764322H4.39803V2.00764ZM18.7102 5.68638H17.7102V9.45195L19.5785 6.18252L18.7102 5.68638ZM20.2387 4.19515L20.7366 5.0624L20.2387 4.19515ZM25.0107 4.26971L25.5209 3.40966L25.0107 4.26971ZM26.7442 6.11511L25.8611 6.58428L25.8642 6.59004L26.7442 6.11511ZM26.7442 11.614L27.6303 12.0775V12.0775L26.7442 11.614ZM24.992 13.4967L24.4775 12.6392L24.4712 12.6431L24.992 13.4967ZM20.2014 13.5899L19.6965 14.4531L19.7036 14.4572L20.2014 13.5899ZM18.7102 12.1173L19.5818 11.6271L17.7102 8.29981V12.1173H18.7102ZM18.7102 14V15H19.7102V14H18.7102ZM17.0139 14H16.0139V15H17.0139V14ZM17.0139 0.206107V-0.793893H16.0139V0.206107H17.0139ZM18.7102 0.206107H19.7102V-0.793893H18.7102V0.206107ZM25.1784 6.84209L26.0571 6.36457L25.1784 6.84209ZM23.9109 5.53726L23.4147 6.40555L23.4235 6.41046L23.9109 5.53726ZM20.4438 5.5559L20.9399 6.42417L20.9464 6.42041L20.4438 5.5559ZM19.1762 6.87937L18.3012 6.39529L18.2976 6.40185L19.1762 6.87937ZM19.1762 10.9057L18.2934 11.3753L18.2994 11.3866L18.3057 11.3978L19.1762 10.9057ZM20.4438 12.2292L19.9323 13.0885L19.9442 13.0956L19.9564 13.1024L20.4438 12.2292ZM23.9109 12.2292L24.407 13.0974L24.4135 13.0937L23.9109 12.2292ZM25.1784 10.9057L26.0571 11.3832L26.0613 11.3753L25.1784 10.9057ZM19.5785 6.18252C19.8292 5.74366 20.2034 5.36848 20.7366 5.0624L19.7409 3.3279C18.9319 3.79229 18.2871 4.41127 17.842 5.19024L19.5785 6.18252ZM20.7366 5.0624C21.2402 4.7733 21.8294 4.6173 22.5315 4.6173V2.6173C21.5187 2.6173 20.5794 2.84653 19.7409 3.3279L20.7366 5.0624ZM22.5315 4.6173C23.2862 4.6173 23.9338 4.79362 24.5005 5.12977L25.5209 3.40966C24.6211 2.87592 23.616 2.6173 22.5315 2.6173V4.6173ZM24.5005 5.12977C25.0668 5.46573 25.5196 5.94145 25.8611 6.58427L27.6273 5.64596C27.1238 4.69813 26.4209 3.94358 25.5209 3.40966L24.5005 5.12977ZM25.8642 6.59004C26.1953 7.20362 26.378 7.94839 26.378 8.85525H28.378C28.378 7.67439 28.1381 6.5924 27.6242 5.64018L25.8642 6.59004ZM26.378 8.85525C26.378 9.74671 26.1965 10.5037 25.8581 11.1505L27.6303 12.0775C28.137 11.1089 28.378 10.0267 28.378 8.85525H26.378ZM25.8581 11.1505C25.5166 11.8035 25.0576 12.2912 24.4775 12.6392L25.5065 14.3542C26.4177 13.8075 27.1269 13.04 27.6303 12.0775L25.8581 11.1505ZM24.4712 12.6431C23.9038 12.9893 23.2657 13.1678 22.5315 13.1678V15.1678C23.6117 15.1678 24.6139 14.8989 25.5129 14.3503L24.4712 12.6431ZM22.5315 13.1678C21.799 13.1678 21.1986 13.0093 20.6993 12.7227L19.7036 14.4572C20.5464 14.941 21.4994 15.1678 22.5315 15.1678V13.1678ZM20.7063 12.7267C20.1828 12.4205 19.8206 12.0517 19.5818 11.6271L17.8386 12.6076C18.2708 13.3759 18.9028 13.9888 19.6966 14.4531L20.7063 12.7267ZM17.7102 12.1173V14H19.7102V12.1173H17.7102ZM18.7102 13H17.0139V15H18.7102V13ZM18.0139 14V0.206107H16.0139V14H18.0139ZM17.0139 1.20611H18.7102V-0.793893H17.0139V1.20611ZM17.7102 0.206107V5.68638H19.7102V0.206107H17.7102ZM26.6444 8.85525C26.6444 7.94871 26.4609 7.10759 26.0571 6.36457L24.2998 7.3196C24.5173 7.71987 24.6444 8.22085 24.6444 8.85525H26.6444ZM26.0571 6.36457C25.662 5.63766 25.1084 5.06044 24.3983 4.66406L23.4235 6.41046C23.7821 6.61058 24.0735 6.90324 24.2998 7.3196L26.0571 6.36457ZM24.407 4.66902C23.7257 4.27969 22.9753 4.08989 22.1773 4.08989V6.08989C22.6469 6.08989 23.0522 6.19834 23.4147 6.4055L24.407 4.66902ZM22.1773 4.08989C21.3804 4.08989 20.629 4.29149 19.9412 4.69139L20.9464 6.42041C21.3273 6.19897 21.7316 6.08989 22.1773 6.08989V4.08989ZM19.9476 4.68766C19.2494 5.08663 18.7029 5.6691 18.3012 6.39531L20.0513 7.36343C20.2957 6.92151 20.5942 6.62167 20.9399 6.42414L19.9476 4.68766ZM18.2976 6.40185C17.895 7.14259 17.7102 7.97673 17.7102 8.87389H19.7102C19.7102 8.25497 19.8361 7.75943 20.0548 7.35688L18.2976 6.40185ZM17.7102 8.87389C17.7102 9.78107 17.894 10.6245 18.2934 11.3753L20.0591 10.4361C19.8371 10.0187 19.7102 9.50765 19.7102 8.87389H17.7102ZM18.3057 11.3978C18.7073 12.1083 19.2487 12.6816 19.9323 13.0885L20.9553 11.3699C20.595 11.1554 20.2914 10.8464 20.0468 10.4136L18.3057 11.3978ZM19.9564 13.1024C20.6421 13.4851 21.3881 13.6765 22.1773 13.6765V11.6765C21.7239 11.6765 21.3141 11.5697 20.9311 11.356L19.9564 13.1024ZM22.1773 13.6765C22.9753 13.6765 23.7257 13.4867 24.407 13.0974L23.4147 11.3609C23.0522 11.5681 22.6469 11.6765 22.1773 11.6765V13.6765ZM24.4135 13.0937C25.1148 12.686 25.6637 12.107 26.0571 11.3832L24.2998 10.4282C24.0718 10.8476 23.7757 11.151 23.4083 11.3647L24.4135 13.0937ZM26.0613 11.3753C26.4618 10.6223 26.6444 9.77192 26.6444 8.85525H24.6444C24.6444 9.50438 24.5164 10.0209 24.2956 10.4361L26.0613 11.3753ZM38.875 9.5263V10.5263H39.7769L39.8697 9.6292L38.875 9.5263ZM30.7106 9.5263V8.52631H29.6469L29.7125 9.58792L30.7106 9.5263ZM31.7358 11.8936L31.0587 12.6296L31.0664 12.6366L31.0742 12.6435L31.7358 11.8936ZM35.8553 12.2292L36.4245 13.0514L36.4288 13.0484L35.8553 12.2292ZM36.8992 10.8498V9.84977H36.1882L35.9547 10.5213L36.8992 10.8498ZM38.7259 10.8498L39.6893 11.118L40.0425 9.84977H38.7259V10.8498ZM37.0856 13.2544L37.6817 14.0573L37.6894 14.0515L37.0856 13.2544ZM31.4189 13.5154L30.9212 14.3827L30.9273 14.3862L31.4189 13.5154ZM29.6294 11.67L28.7489 12.1441L28.752 12.1498L29.6294 11.67ZM29.6108 6.09647L30.4939 6.56563L29.6108 6.09647ZM31.3816 4.26971L31.8685 5.14321L31.8732 5.14054L31.3816 4.26971ZM36.6009 4.25107L36.1079 5.12109L36.6009 4.25107ZM38.3158 6.00327L37.4335 6.47386L37.4382 6.48269L37.4431 6.49142L38.3158 6.00327ZM37.1788 8.14692V9.14692H38.1788V8.14692H37.1788ZM36.75 6.48792L35.8945 7.00576L35.9008 7.01585L36.75 6.48792ZM35.5757 5.42542L35.1194 6.31524L35.1329 6.32217L35.1466 6.3287L35.5757 5.42542ZM31.7544 5.87279L31.0863 5.1287L31.0787 5.13563L31.7544 5.87279ZM30.7292 8.14692L29.7332 8.05753L29.6354 9.14692H30.7292V8.14692ZM37.931 8.50108C37.931 8.78599 37.9145 9.09318 37.8804 9.4234L39.8697 9.6292C39.9101 9.23867 39.931 8.86238 39.931 8.50108H37.931ZM38.875 8.52631H30.7106V10.5263H38.875V8.52631ZM29.7125 9.58792C29.7872 10.7989 30.2112 11.8499 31.0587 12.6296L32.4128 11.1577C32.0176 10.7941 31.7582 10.2669 31.7087 9.46469L29.7125 9.58792ZM31.0742 12.6435C31.902 13.3739 32.9057 13.7325 34.0285 13.7325V11.7325C33.3619 11.7325 32.8371 11.5318 32.3974 11.1438L31.0742 12.6435ZM34.0285 13.7325C34.9152 13.7325 35.7358 13.5282 36.4245 13.0514L35.2861 11.407C35.0055 11.6012 34.6083 11.7325 34.0285 11.7325V13.7325ZM36.4288 13.0484C37.0975 12.5802 37.5756 11.949 37.8437 11.1783L35.9547 10.5213C35.8251 10.8939 35.6072 11.1822 35.2818 11.4099L36.4288 13.0484ZM36.8992 11.8498H38.7259V9.84977H36.8992V11.8498ZM37.7626 10.5815C37.5485 11.3502 37.1292 11.9667 36.4817 12.4573L37.6894 14.0515C38.6822 13.2993 39.3565 12.3128 39.6893 11.118L37.7626 10.5815ZM36.4895 12.4515C35.8729 12.9092 35.0742 13.1678 34.0285 13.1678V15.1678C35.4186 15.1678 36.6579 14.8174 37.6817 14.0573L36.4895 12.4515ZM34.0285 13.1678C33.2146 13.1678 32.5169 12.9869 31.9105 12.6445L30.9273 14.3862C31.8618 14.9137 32.9039 15.1678 34.0285 15.1678V13.1678ZM31.9166 12.648C31.3245 12.3083 30.8567 11.8301 30.5068 11.1901L28.752 12.1498C29.272 13.1005 29.9972 13.8525 30.9212 14.3827L31.9166 12.648ZM30.5099 11.1959C30.1646 10.5545 29.977 9.78994 29.977 8.87389H27.977C27.977 10.0704 28.2244 11.1699 28.7489 12.1441L30.5099 11.1959ZM29.977 8.87389C29.977 7.95288 30.1604 7.19339 30.4939 6.56563L28.7277 5.62732C28.2161 6.5902 27.977 7.68233 27.977 8.87389H29.977ZM30.4939 6.56563C30.8296 5.93366 31.2853 5.46825 31.8685 5.14319L30.8947 3.39623C29.9619 3.9162 29.237 4.66863 28.7277 5.62732L30.4939 6.56563ZM31.8732 5.14054C32.4758 4.80034 33.1849 4.6173 34.0285 4.6173V2.6173C32.8838 2.6173 31.8283 2.8692 30.89 3.39889L31.8732 5.14054ZM34.0285 4.6173C34.8481 4.6173 35.5315 4.79445 36.1079 5.12109L37.0939 3.38105C36.1791 2.86266 35.1476 2.6173 34.0285 2.6173V4.6173ZM36.1079 5.12109C36.691 5.45149 37.1264 5.89811 37.4335 6.47386L39.1982 5.53268C38.7099 4.61719 38.0021 3.89568 37.0939 3.38105L36.1079 5.12109ZM37.4431 6.49142C37.7609 7.0596 37.931 7.72087 37.931 8.50108H39.931C39.931 7.41726 39.691 6.41331 39.1886 5.51512L37.4431 6.49142ZM38.1788 8.14692C38.1788 7.35059 38.0013 6.6066 37.5993 5.95999L35.9008 7.01585C36.0704 7.28883 36.1788 7.65084 36.1788 8.14692H38.1788ZM37.6055 5.97012C37.2187 5.33098 36.6792 4.84251 36.0048 4.52214L35.1466 6.3287C35.4663 6.48055 35.7097 6.70041 35.8945 7.00572L37.6055 5.97012ZM36.032 4.5356C35.3931 4.20794 34.6938 4.05261 33.954 4.05261V6.05261C34.4072 6.05261 34.789 6.14582 35.1194 6.31524L36.032 4.5356ZM33.954 4.05261C32.8628 4.05261 31.8881 4.40874 31.0863 5.12874L32.4225 6.61684C32.8386 6.24327 33.3303 6.05261 33.954 6.05261V4.05261ZM31.0787 5.13563C30.2626 5.88372 29.8377 6.89302 29.7332 8.05753L31.7252 8.2363C31.7947 7.46221 32.0532 6.95543 32.4301 6.60994L31.0787 5.13563ZM30.7292 9.14692H37.1788V7.14692H30.7292V9.14692ZM42.8663 5.44406H41.8663L43.7569 5.89883L42.8663 5.44406ZM44.1338 4.08331L43.6335 3.2174L43.6251 3.22238L44.1338 4.08331ZM46.1656 3.59866H47.1656V2.59866H46.1656V3.59866ZM46.1656 5.35086V6.35086H47.1656V5.35086H46.1656ZM42.8663 14V15H43.8663V14H42.8663ZM41.17 14H40.17V15H41.17V14ZM41.17 3.78506V2.78506H40.17V3.78506H41.17ZM42.8663 3.78506H43.8663V2.78506H42.8663V3.78506ZM43.7569 5.89883C43.9719 5.47781 44.2645 5.16763 44.6426 4.94424L43.6251 3.22238C42.9096 3.64519 42.3572 4.24217 41.9757 4.98928L43.7569 5.89883ZM44.6341 4.94917C45.0097 4.73215 45.5056 4.59866 46.1656 4.59866V2.59866C45.235 2.59866 44.3763 2.78827 43.6335 3.21744L44.6341 4.94917ZM45.1656 3.59866V5.35086H47.1656V3.59866H45.1656ZM46.1656 4.35086H45.7183V6.35086H46.1656V4.35086ZM45.7183 4.35086C44.5916 4.35086 43.5688 4.66025 42.844 5.4467C42.1333 6.21774 41.8663 7.27889 41.8663 8.44516H43.8663C43.8663 7.54856 44.0746 7.06256 44.3146 6.80216C44.5404 6.55718 44.9436 6.35086 45.7183 6.35086V4.35086ZM41.8663 8.44516V14H43.8663V8.44516H41.8663ZM42.8663 13H41.17V15H42.8663V13ZM42.17 14V3.78506H40.17V14H42.17ZM41.17 4.78506H42.8663V2.78506H41.17V4.78506ZM41.8663 3.78506V5.44406H43.8663V3.78506H41.8663Z" fill="black"/>
</g>
<defs>
<filter id="filter0_d_3_4" x="0.398041" y="0.206055" width="49.7676" height="21.9617" filterUnits="userSpaceOnUse" color-interpolation-filters="sRGB">
<feFlood flood-opacity="0" result="BackgroundImageFix"/>
<feColorMatrix in="SourceAlpha" type="matrix" values="0 0 0 0 0 0 0 0 0 0 0 0 0 0 0 0 0 0 127 0" result="hardAlpha"/>
<feOffset dy="4"/>
<feGaussianBlur stdDeviation="2"/>
<feComposite in2="hardAlpha" operator="out"/>
<feColorMatrix type="matrix" values="0 0 0 0 0 0 0 0 0 0 0 0 0 0 0 0 0 0 0.25 0"/>
<feBlend mode="normal" in2="BackgroundImageFix" result="effect1_dropShadow_3_4"/>
<feBlend mode="normal" in="SourceGraphic" in2="effect1_dropShadow_3_4" result="shape"/>
</filter>
</defs>
</svg>
