<svg width="11" height="11" viewBox="0 0 11 11" fill="none" xmlns="http://www.w3.org/2000/svg">
<path d="M1.78125 0.984375C1.78125 1.14198 1.73451 1.29605 1.64695 1.4271C1.55939 1.55814 1.43494 1.66028 1.28933 1.72059C1.14372 1.78091 0.983491 1.79669 0.828913 1.76594C0.674334 1.73519 0.532345 1.6593 0.4209 1.54785C0.309455 1.43641 0.23356 1.29442 0.202812 1.13984C0.172064 0.985259 0.187845 0.825034 0.248159 0.679425C0.308472 0.533815 0.41061 0.40936 0.541655 0.321798C0.672701 0.234236 0.826768 0.1875 0.984375 0.1875C1.19572 0.1875 1.39841 0.271457 1.54785 0.4209C1.69729 0.570343 1.78125 0.773031 1.78125 0.984375ZM5.5 0.1875C5.34239 0.1875 5.18833 0.234236 5.05728 0.321798C4.92624 0.40936 4.8241 0.533815 4.76378 0.679425C4.70347 0.825034 4.68769 0.985259 4.71844 1.13984C4.74918 1.29442 4.82508 1.43641 4.93652 1.54785C5.04797 1.6593 5.18996 1.73519 5.34454 1.76594C5.49912 1.79669 5.65934 1.78091 5.80495 1.72059C5.95056 1.66028 6.07502 1.55814 6.16258 1.4271C6.25014 1.29605 6.29688 1.14198 6.29688 0.984375C6.29688 0.773031 6.21292 0.570343 6.06348 0.4209C5.91403 0.271457 5.71134 0.1875 5.5 0.1875ZM10.0156 1.78125C10.1732 1.78125 10.3273 1.73451 10.4583 1.64695C10.5894 1.55939 10.6915 1.43494 10.7518 1.28933C10.8122 1.14372 10.8279 0.983491 10.7972 0.828913C10.7664 0.674334 10.6905 0.532345 10.5791 0.4209C10.4677 0.309455 10.3257 0.23356 10.1711 0.202812C10.0165 0.172064 9.85628 0.187845 9.71067 0.248159C9.56506 0.308472 9.44061 0.41061 9.35305 0.541655C9.26549 0.672701 9.21875 0.826768 9.21875 0.984375C9.21875 1.19572 9.30271 1.39841 9.45215 1.54785C9.60159 1.69729 9.80428 1.78125 10.0156 1.78125ZM0.984375 9.21875C0.826768 9.21875 0.672701 9.26549 0.541655 9.35305C0.41061 9.44061 0.308472 9.56506 0.248159 9.71067C0.187845 9.85628 0.172064 10.0165 0.202812 10.1711C0.23356 10.3257 0.309455 10.4677 0.4209 10.5791C0.532345 10.6905 0.674334 10.7664 0.828913 10.7972C0.983491 10.8279 1.14372 10.8122 1.28933 10.7518C1.43494 10.6915 1.55939 10.5894 1.64695 10.4583C1.73451 10.3273 1.78125 10.1732 1.78125 10.0156C1.78125 9.80428 1.69729 9.60159 1.54785 9.45215C1.39841 9.30271 1.19572 9.21875 0.984375 9.21875ZM5.5 9.21875C5.34239 9.21875 5.18833 9.26549 5.05728 9.35305C4.92624 9.44061 4.8241 9.56506 4.76378 9.71067C4.70347 9.85628 4.68769 10.0165 4.71844 10.1711C4.74918 10.3257 4.82508 10.4677 4.93652 10.5791C5.04797 10.6905 5.18996 10.7664 5.34454 10.7972C5.49912 10.8279 5.65934 10.8122 5.80495 10.7518C5.95056 10.6915 6.07502 10.5894 6.16258 10.4583C6.25014 10.3273 6.29688 10.1732 6.29688 10.0156C6.29688 9.80428 6.21292 9.60159 6.06348 9.45215C5.91403 9.30271 5.71134 9.21875 5.5 9.21875ZM10.0156 9.21875C9.85802 9.21875 9.70395 9.26549 9.57291 9.35305C9.44186 9.44061 9.33972 9.56506 9.27941 9.71067C9.2191 9.85628 9.20331 10.0165 9.23406 10.1711C9.26481 10.3257 9.3407 10.4677 9.45215 10.5791C9.56359 10.6905 9.70558 10.7664 9.86016 10.7972C10.0147 10.8279 10.175 10.8122 10.3206 10.7518C10.4662 10.6915 10.5906 10.5894 10.6782 10.4583C10.7658 10.3273 10.8125 10.1732 10.8125 10.0156C10.8125 9.80428 10.7285 9.60159 10.5791 9.45215C10.4297 9.30271 10.227 9.21875 10.0156 9.21875ZM0.984375 4.70313C0.826768 4.70313 0.672701 4.74986 0.541655 4.83742C0.41061 4.92498 0.308472 5.04944 0.248159 5.19505C0.187845 5.34066 0.172064 5.50088 0.202812 5.65546C0.23356 5.81004 0.309455 5.95203 0.4209 6.06348C0.532345 6.17492 0.674334 6.25082 0.828913 6.28156C0.983491 6.31231 1.14372 6.29653 1.28933 6.23622C1.43494 6.1759 1.55939 6.07377 1.64695 5.94272C1.73451 5.81168 1.78125 5.65761 1.78125 5.5C1.78125 5.28866 1.69729 5.08597 1.54785 4.93652C1.39841 4.78708 1.19572 4.70313 0.984375 4.70313ZM5.5 4.70313C5.34239 4.70313 5.18833 4.74986 5.05728 4.83742C4.92624 4.92498 4.8241 5.04944 4.76378 5.19505C4.70347 5.34066 4.68769 5.50088 4.71844 5.65546C4.74918 5.81004 4.82508 5.95203 4.93652 6.06348C5.04797 6.17492 5.18996 6.25082 5.34454 6.28156C5.49912 6.31231 5.65934 6.29653 5.80495 6.23622C5.95056 6.1759 6.07502 6.07377 6.16258 5.94272C6.25014 5.81168 6.29688 5.65761 6.29688 5.5C6.29688 5.28866 6.21292 5.08597 6.06348 4.93652C5.91403 4.78708 5.71134 4.70313 5.5 4.70313ZM10.0156 4.70313C9.85802 4.70313 9.70395 4.74986 9.57291 4.83742C9.44186 4.92498 9.33972 5.04944 9.27941 5.19505C9.2191 5.34066 9.20331 5.50088 9.23406 5.65546C9.26481 5.81004 9.3407 5.95203 9.45215 6.06348C9.56359 6.17492 9.70558 6.25082 9.86016 6.28156C10.0147 6.31231 10.175 6.29653 10.3206 6.23622C10.4662 6.1759 10.5906 6.07377 10.6782 5.94272C10.7658 5.81168 10.8125 5.65761 10.8125 5.5C10.8125 5.28866 10.7285 5.08597 10.5791 4.93652C10.4297 4.78708 10.227 4.70313 10.0156 4.70313Z" fill="white"/>
</svg>
